# xmcd
#
# Track frame offsets:
#	183
#	14958
#	30955
#	53185
#	73628
#	89743
#	106910
#	122948
#	142078
#	157068
#	175535
#	194798
#
# Disc length: 2830 seconds
#
# Revision: 1
# Processed by: cddbd v1.5.2PL0 Copyright (c) Steve Scherf et al.
# Submitted via: audiograbber 1.83.01
#
DISCID=b30b0c0c
DTITLE=Keith Christmas Blues Band - Weatherman
DYEAR=2000
DGENRE=Blues
TTITLE0=Weatherman Blues
TTITLE1=Corinne Corinna
TTITLE2=Tied To The Wheel
TTITLE3=Need Your Love So Bad
TTITLE4=Loretta
TTITLE5=New Fool
TTITLE6=The Days Are Long
TTITLE7=Lie Down With The Devil
TTITLE8=Come Back Honey
TTITLE9=Jam
TTITLE10=Judgement Day
TTITLE11=Words
EXTD=
EXTT0=
EXTT1=
EXTT2=
EXTT3=
EXTT4=
EXTT5=
EXTT6=
EXTT7=
EXTT8=
EXTT9=
EXTT10=
EXTT11=
PLAYORDER=
